<svg width="40" height="40" viewBox="0 0 40 40" fill="none" xmlns="http://www.w3.org/2000/svg">
<path d="M22.2098 20.0002L39.5424 2.66756C40.1526 2.05733 40.1526 1.06795 39.5424 0.457797C38.9321 -0.152358 37.9428 -0.152436 37.3326 0.457797L20 17.7904L2.66744 0.457797C2.0572 -0.152436 1.06783 -0.152436 0.457675 0.457797C-0.15248 1.06803 -0.152558 2.0574 0.457675 2.66756L17.7902 20.0001L0.457675 37.3327C-0.152558 37.943 -0.152558 38.9324 0.457675 39.5425C0.762752 39.8476 1.16267 40.0001 1.56259 40.0001C1.96252 40.0001 2.36236 39.8476 2.66751 39.5425L20 22.21L37.3325 39.5425C37.6376 39.8476 38.0375 40.0001 38.4374 40.0001C38.8374 40.0001 39.2372 39.8476 39.5424 39.5425C40.1526 38.9323 40.1526 37.9429 39.5424 37.3327L22.2098 20.0002Z" fill="black"/>
</svg>
