<svg width="50" height="35" viewBox="0 0 50 35" fill="none" xmlns="http://www.w3.org/2000/svg">
<path d="M50 1.75C50 2.21413 49.8119 2.65925 49.477 2.98744C49.1421 3.31563 48.6879 3.5 48.2143 3.5H1.78571C1.31211 3.5 0.85791 3.31563 0.523024 2.98744C0.188137 2.65925 0 2.21413 0 1.75C0 1.28587 0.188137 0.840752 0.523024 0.512563C0.85791 0.184375 1.31211 0 1.78571 0H48.2143C48.6879 0 49.1421 0.184375 49.477 0.512563C49.8119 0.840752 50 1.28587 50 1.75ZM41.0714 15.75H1.78571C1.31211 15.75 0.85791 15.9344 0.523024 16.2626C0.188137 16.5908 0 17.0359 0 17.5C0 17.9641 0.188137 18.4092 0.523024 18.7374C0.85791 19.0656 1.31211 19.25 1.78571 19.25H41.0714C41.545 19.25 41.9992 19.0656 42.3341 18.7374C42.669 18.4092 42.8571 17.9641 42.8571 17.5C42.8571 17.0359 42.669 16.5908 42.3341 16.2626C41.9992 15.9344 41.545 15.75 41.0714 15.75ZM25 31.5H1.78571C1.31211 31.5 0.85791 31.6844 0.523024 32.0126C0.188137 32.3408 0 32.7859 0 33.25C0 33.7141 0.188137 34.1592 0.523024 34.4874C0.85791 34.8156 1.31211 35 1.78571 35H25C25.4736 35 25.9278 34.8156 26.2627 34.4874C26.5976 34.1592 26.7857 33.7141 26.7857 33.25C26.7857 32.7859 26.5976 32.3408 26.2627 32.0126C25.9278 31.6844 25.4736 31.5 25 31.5Z" fill="white"/>
</svg>
