<svg width="51" height="50" viewBox="0 0 51 50" fill="none" xmlns="http://www.w3.org/2000/svg">
<g clip-path="url(#clip0_10_21)">
<path d="M48.5848 0H34.9461C33.9046 0 33.0605 0.843555 33.0605 1.88447C33.0605 2.92529 33.9046 3.76885 34.9461 3.76885H46.6993V15.515C46.6993 16.5559 47.5434 17.3994 48.5848 17.3994C49.6262 17.3994 50.4704 16.5559 50.4704 15.515V1.88447C50.4704 0.843555 49.6263 0 48.5848 0Z" fill="black"/>
<path d="M49.9181 0.552173C49.1815 -0.184058 47.9885 -0.184058 47.2519 0.552173L20.3513 27.4365C19.6147 28.1721 19.6147 29.3655 20.3513 30.1011C20.719 30.4692 21.2017 30.6532 21.6845 30.6532C22.1665 30.6532 22.6492 30.4692 23.0176 30.1011L49.9181 3.21672C50.6548 2.48118 50.6548 1.28772 49.9181 0.552173Z" fill="black"/>
<path d="M42.174 23.4296C41.1326 23.4296 40.2884 24.2732 40.2884 25.314V46.2311H4.21154V10.1758H25.1412C26.1826 10.1758 27.0267 9.33228 27.0267 8.29145C27.0267 7.25063 26.1826 6.40698 25.1412 6.40698H2.32603C1.28449 6.40698 0.44043 7.25054 0.44043 8.29145V48.1156C0.44043 49.1564 1.28449 50 2.32603 50H42.174C43.2161 50 44.0596 49.1564 44.0596 48.1155V25.314C44.0596 24.2732 43.2155 23.4296 42.174 23.4296Z" fill="black"/>
</g>
<defs>
<clipPath id="clip0_10_21">
<rect width="50.03" height="50" fill="white" transform="translate(0.44043)"/>
</clipPath>
</defs>
</svg>
