<svg width="30" height="30" viewBox="0 0 30 30" fill="none" xmlns="http://www.w3.org/2000/svg">
<g clip-path="url(#clip0_251_117)">
<path d="M14.4937 29.8629C21.2561 29.8629 25.464 24.7876 25.464 18.2398C25.464 15.7712 25.0692 13.5421 22.3179 12.8724C22.9875 11.0051 24.9192 5.60355 24.9192 3.8731C24.9192 2.34917 24.0193 1.07211 22.4151 1.07211C19.8582 1.07211 17.5665 8.61596 16.849 10.4148C16.2935 8.78216 13.6922 0.533173 11.3993 0.533173C9.6175 0.533173 8.7812 1.84446 8.7812 3.49425C8.7812 5.51678 10.7406 10.7583 11.4509 12.7747C11.0909 12.6427 10.701 12.5278 10.3038 12.5278C8.96238 12.5278 7.53576 14.1947 7.53576 15.5414C7.53576 16.051 7.81652 16.7672 7.9941 17.2426C5.87996 17.8157 5.06646 19.2248 5.06646 21.35C5.06046 25.4854 8.98158 29.8629 14.4937 29.8629V29.8629ZM20.289 6.72052C20.5194 6.01539 21.4984 3.0372 22.4151 3.0372C22.9083 3.0372 23.0403 3.5468 23.0403 3.95375C23.0403 5.04751 20.8289 11.0919 20.3406 12.4313L18.392 12.0879L20.289 6.72052ZM10.581 3.30117V3.29994C10.581 2.61803 11.4125 0.682266 13.2339 5.99828L15.2172 11.7445C14.3233 11.6699 13.6298 11.5722 13.1895 11.8251C12.5643 10.1753 10.581 4.96807 10.581 3.30117V3.30117ZM10.449 14.51L10.4502 14.5112C12.1288 14.5112 14.2957 19.9299 14.2957 20.6631C14.2957 20.9552 14.015 21.3157 13.6886 21.3157C12.4899 21.3157 9.28034 16.9102 9.28034 15.7186C9.28514 15.2775 10.0075 14.51 10.449 14.51V14.51ZM8.51964 18.995C9.17236 18.995 11.6309 22.4498 11.6309 23.1831C11.6309 23.4641 11.1893 23.6584 10.9613 23.6584C10.0387 23.6584 9.67749 22.77 8.0337 20.7145C6.3311 22.4156 9.20835 25.692 11.3753 25.692C12.8703 25.692 13.8446 24.3061 13.553 23.2857C13.7654 23.2857 14.0282 23.3028 14.2237 23.2515C14.2873 24.8035 14.7457 26.6537 16.6138 26.7857C16.6138 26.7344 16.729 26.3788 16.729 26.3617C16.729 25.3645 16.1219 24.4943 16.1219 23.48C16.1219 21.8583 17.365 20.2892 18.626 19.3726C19.0843 19.0292 19.6411 18.8166 20.1786 18.6223C20.7353 18.4109 21.3257 18.164 21.748 17.7399C21.6844 17.0984 21.4217 16.5313 20.7797 16.5313C19.1923 16.5313 13.8686 16.7611 13.8686 14.257C13.8686 13.8733 13.8746 13.5067 14.8669 13.5067C16.7182 13.5067 21.4181 13.965 22.7931 15.1736C23.8298 16.0963 24.1861 21.6579 21.0161 25.1811L21.0125 25.1824C19.3447 27.0155 17.2126 27.9663 14.7253 27.9663C11.3213 27.9663 8.63242 26.0989 7.33778 22.9081C6.3575 20.4224 7.55615 18.995 8.51964 18.995V18.995ZM15.36 17.9636C15.9179 18.142 16.4903 18.1946 17.0638 18.3082C16.639 18.6174 16.2623 18.9962 15.8999 19.402C15.7392 18.9156 15.5436 18.4402 15.36 17.9636Z" fill="white"/>
</g>
<defs>
<clipPath id="clip0_251_117">
<rect width="28.7965" height="29.3297" fill="white" transform="translate(0.866974 0.533173)"/>
</clipPath>
</defs>
</svg>
