<svg width="30" height="31" viewBox="0 0 30 31" fill="none" xmlns="http://www.w3.org/2000/svg">
<path d="M10.5332 27.3747C11.3676 27.3747 11.5952 27.0456 11.5952 26.6402C11.5952 26.2774 11.5823 25.3166 11.5759 24.0434C7.25237 24.9643 6.34051 21.9944 6.34051 21.9944C5.63337 20.2317 4.61123 19.7601 4.61123 19.7601C3.2034 18.8133 4.72004 18.8327 4.72004 18.8327C6.28097 18.9388 7.10074 20.4065 7.10074 20.4065C8.48657 22.7417 10.7391 22.0672 11.6278 21.6771C11.7677 20.6887 12.168 20.0164 12.6121 19.6345C9.16027 19.2524 5.53218 17.939 5.53218 12.0871C5.53218 10.42 6.13461 9.05765 7.13183 7.98888C6.95702 7.6029 6.43231 6.04989 7.26792 3.94636C7.26792 3.94636 8.56957 3.53692 11.5421 5.51227C12.7857 5.17293 14.1067 5.00458 15.428 4.99666C16.7493 5.00428 18.0703 5.17293 19.3139 5.51227C22.2671 3.53692 23.5688 3.94636 23.5688 3.94636C24.4041 6.04989 23.8797 7.6029 23.7242 7.98888C24.715 9.05736 25.3174 10.42 25.3174 12.0871C25.3174 17.9545 21.6844 19.2459 18.2258 19.6216C18.7699 20.0801 19.2749 21.0166 19.2749 22.4479C19.2749 24.4918 19.2556 26.1343 19.2556 26.6303C19.2556 27.0306 19.4286 27.3556 20.324 27.3556L10.5332 27.3747Z" fill="white"/>
</svg>
