<svg width="30" height="30" viewBox="0 0 30 30" fill="none" xmlns="http://www.w3.org/2000/svg">
<g clip-path="url(#clip0_251_120)">
<path d="M29.9713 9.1562C29.9026 7.59779 29.6505 6.52641 29.2895 5.59803C28.9171 4.61259 28.3441 3.73032 27.5935 2.99689C26.8601 2.25205 25.972 1.67327 24.9979 1.30667C24.0642 0.945658 22.9984 0.693646 21.44 0.624935C19.87 0.550406 19.3715 0.533173 15.3895 0.533173C11.4074 0.533173 10.909 0.550406 9.34476 0.619116C7.78636 0.687827 6.71497 0.940063 5.78683 1.30085C4.80116 1.67327 3.91889 2.24623 3.18546 2.99689C2.44062 3.73032 1.86206 4.61841 1.49523 5.59244C1.13423 6.52641 0.882214 7.59197 0.813504 9.15038C0.738974 10.7204 0.721741 11.2188 0.721741 15.2009C0.721741 19.183 0.738974 19.6814 0.807684 21.2456C0.876395 22.804 1.12863 23.8754 1.48964 24.8038C1.86206 25.7892 2.44062 26.6715 3.18546 27.4049C3.91889 28.1498 4.80698 28.7285 5.78101 29.0951C6.71497 29.4562 7.78054 29.7082 9.33917 29.7769C10.9032 29.8458 11.4018 29.8628 15.3839 29.8628C19.3659 29.8628 19.8644 29.8458 21.4286 29.7769C22.987 29.7082 24.0584 29.4562 24.9865 29.0951C26.9576 28.3331 28.516 26.7747 29.2781 24.8038C29.6389 23.8698 29.8911 22.804 29.9598 21.2456C30.0286 19.6814 30.0458 19.183 30.0458 15.2009C30.0458 11.2188 30.04 10.7204 29.9713 9.1562ZM27.3301 21.131C27.2669 22.5634 27.0263 23.3369 26.8258 23.8526C26.333 25.1303 25.3189 26.1444 24.0411 26.6372C23.5255 26.8378 22.7464 27.0784 21.3196 27.1413C19.7726 27.2102 19.3086 27.2272 15.3953 27.2272C11.4819 27.2272 11.0122 27.2102 9.47077 27.1413C8.03837 27.0784 7.26488 26.8378 6.74922 26.6372C6.11337 26.4022 5.53459 26.0298 5.06481 25.5428C4.57779 25.0672 4.20537 24.4942 3.97037 23.8584C3.76983 23.3427 3.52924 22.5634 3.46635 21.1368C3.39741 19.5899 3.3804 19.1257 3.3804 15.2123C3.3804 11.299 3.39741 10.8292 3.46635 9.28802C3.52924 7.85562 3.76983 7.08213 3.97037 6.56647C4.20537 5.9304 4.57779 5.35184 5.07063 4.88184C5.546 4.39482 6.11896 4.0224 6.75504 3.78762C7.2707 3.58709 8.05001 3.34649 9.47659 3.28337C11.0236 3.21466 11.4878 3.19743 15.4009 3.19743C19.3201 3.19743 19.784 3.21466 21.3254 3.28337C22.7578 3.34649 23.5313 3.58709 24.047 3.78762C24.6828 4.0224 25.2616 4.39482 25.7314 4.88184C26.2184 5.35744 26.5908 5.9304 26.8258 6.56647C27.0263 7.08213 27.2669 7.86122 27.3301 9.28802C27.3988 10.835 27.416 11.299 27.416 15.2123C27.416 19.1257 27.3988 19.584 27.3301 21.131Z" fill="white"/>
<path d="M15.3893 7.6665C11.2298 7.6665 7.8549 11.0411 7.8549 15.2009C7.8549 19.3607 11.2298 22.7353 15.3893 22.7353C19.5491 22.7353 22.9237 19.3607 22.9237 15.2009C22.9237 11.0411 19.5491 7.6665 15.3893 7.6665ZM15.3893 20.0883C12.6908 20.0883 10.5019 17.8996 10.5019 15.2009C10.5019 12.5022 12.6908 10.3135 15.3893 10.3135C18.088 10.3135 20.2767 12.5022 20.2767 15.2009C20.2767 17.8996 18.088 20.0883 15.3893 20.0883V20.0883Z" fill="white"/>
<path d="M24.9808 7.36862C24.9808 8.33996 24.1932 9.12756 23.2216 9.12756C22.2503 9.12756 21.4627 8.33996 21.4627 7.36862C21.4627 6.39705 22.2503 5.60968 23.2216 5.60968C24.1932 5.60968 24.9808 6.39705 24.9808 7.36862V7.36862Z" fill="white"/>
</g>
<defs>
<clipPath id="clip0_251_120">
<rect width="29.3297" height="29.3297" fill="white" transform="translate(0.670044 0.533173)"/>
</clipPath>
</defs>
</svg>
