<svg width="31" height="30" viewBox="0 0 31 30" fill="none" xmlns="http://www.w3.org/2000/svg">
<path d="M27.3353 26.8767V18.1268C27.3353 13.8266 26.4096 10.5416 21.3926 10.5416C18.9737 10.5416 17.3611 11.8556 16.7041 13.1099H16.6444V10.9299H11.8961V26.8767H16.8534V18.963C16.8534 16.8726 17.2416 14.8718 19.8098 14.8718C22.3482 14.8718 22.3781 17.231 22.3781 19.0825V26.8468H27.3353V26.8767Z" fill="white"/>
<path d="M3.83313 10.9299H8.79039V26.8767H3.83313V10.9299Z" fill="white"/>
<path d="M6.31177 2.9863C4.72903 2.9863 3.44492 4.27041 3.44492 5.85315C3.44492 7.43588 4.72903 8.74986 6.31177 8.74986C7.89451 8.74986 9.17862 7.43588 9.17862 5.85315C9.17862 4.27041 7.89451 2.9863 6.31177 2.9863V2.9863Z" fill="white"/>
</svg>
