<svg width="28" height="28" viewBox="0 0 28 28" fill="none" xmlns="http://www.w3.org/2000/svg">
<g clip-path="url(#clip0_251_111)">
<path d="M25.1091 5.858L27.2366 3.8227V3.3772H19.8664L14.6137 16.4511L8.63781 3.3772H0.909867V3.8227L3.39512 6.81455C3.63731 7.03564 3.76396 7.35893 3.73174 7.68445V19.4419C3.8084 19.8652 3.67064 20.3007 3.3729 20.6084L0.573242 24.0013V24.4413H8.51115V23.9958L5.7115 20.6084C5.4082 20.2996 5.26489 19.8718 5.32599 19.4419V9.27203L12.294 24.4468H13.1039L19.0954 9.27203V21.3605C19.0954 21.6794 19.0954 21.7449 18.8865 21.9538L16.7313 24.0391V24.4857H27.1877V24.0402L25.1102 22.006C24.928 21.8683 24.8336 21.6372 24.8725 21.4128V6.45126C24.8336 6.22574 24.9269 5.99465 25.1091 5.858V5.858Z" fill="white"/>
</g>
<defs>
<clipPath id="clip0_251_111">
<rect width="26.6634" height="26.6634" fill="white" transform="translate(0.573242 0.599762)"/>
</clipPath>
</defs>
</svg>
