<svg width="30" height="30" viewBox="0 0 30 30" fill="none" xmlns="http://www.w3.org/2000/svg">
<path d="M26.7758 7.92427C25.8959 8.30555 24.9867 8.56952 24.0188 8.68684C25.016 8.10025 25.7786 7.16169 26.1305 6.01784C25.192 6.5751 24.1654 6.95639 23.0802 7.19102C22.2003 6.25247 20.9392 5.66588 19.5607 5.66588C16.8917 5.66588 14.7506 7.83628 14.7506 10.476C14.7506 10.8572 14.7799 11.2092 14.8679 11.5612C10.8791 11.3852 7.35949 9.44941 4.98378 6.54577C3.28265 9.59606 5.18908 12.1184 6.45026 12.969C5.68769 12.969 4.92512 12.7343 4.27986 12.3824C4.27986 14.7581 5.95166 16.7232 8.12206 17.1631C7.65278 17.3098 6.59691 17.3978 5.95166 17.2511C6.56758 19.1576 8.3567 20.5654 10.4391 20.5947C8.79664 21.8852 6.3916 22.9118 3.31198 22.5891C5.45305 23.9676 7.97541 24.7595 10.7031 24.7595C19.5607 24.7595 24.3707 17.4271 24.3707 11.0919C24.3707 10.8866 24.3707 10.6813 24.3414 10.476C25.3386 9.74271 26.1599 8.89215 26.7758 7.92427V7.92427Z" fill="white"/>
</svg>
